<?xml version="1.0" standalone="no"?>
<!DOCTYPE svg PUBLIC "-//W3C//DTD SVG 20010904//EN"
 "http://www.w3.org/TR/2001/REC-SVG-20010904/DTD/svg10.dtd">
<svg version="1.0" xmlns="http://www.w3.org/2000/svg"
 width="256.000000pt" height="256.000000pt" viewBox="0 0 256.000000 256.000000"
 preserveAspectRatio="xMidYMid meet">
<metadata>
Created by potrace 1.14, written by Peter Selinger 2001-2017
</metadata>
<g transform="translate(0.000000,256.000000) scale(0.100000,-0.100000)"
fill="#000000" stroke="none">
<path d="M1110 2553 c-72 -11 -221 -48 -277 -69 -427 -161 -737 -535 -818
-987 -26 -144 -17 -395 19 -527 65 -242 168 -422 341 -596 157 -157 320 -254
529 -314 140 -40 202 -50 347 -57 104 -5 145 -2 245 16 160 30 229 52 359 116
360 178 615 519 690 924 22 119 20 335 -4 459 -101 522 -501 921 -1024 1023
-91 18 -326 25 -407 12z"/>
</g>
</svg>
